<mxfile host="app.diagrams.net" modified="2024-04-19T20:27:07.305Z" agent="Mozilla/5.0 (Windows NT 10.0; Win64; x64) AppleWebKit/537.36 (KHTML, like Gecko) Chrome/123.0.0.0 Safari/537.36" etag="7-pCg3XOZbmuHOb3PR08" version="21.8.2" type="device">
  <diagram name="Page-1" id="RYtIsaGE_B-wap43TWpy">
    <mxGraphModel dx="1615" dy="875" grid="1" gridSize="10" guides="1" tooltips="1" connect="1" arrows="1" fold="1" page="1" pageScale="1" pageWidth="850" pageHeight="1100" math="0" shadow="0">
      <root>
        <mxCell id="0" />
        <mxCell id="1" parent="0" />
        <mxCell id="_DLlkHEPcoLW3twBY6Hj-6" style="edgeStyle=orthogonalEdgeStyle;rounded=0;orthogonalLoop=1;jettySize=auto;html=1;exitX=0.5;exitY=1;exitDx=0;exitDy=0;entryX=0.5;entryY=0;entryDx=0;entryDy=0;" edge="1" parent="1" source="_DLlkHEPcoLW3twBY6Hj-1" target="_DLlkHEPcoLW3twBY6Hj-2">
          <mxGeometry relative="1" as="geometry" />
        </mxCell>
        <mxCell id="_DLlkHEPcoLW3twBY6Hj-1" value="&lt;font style=&quot;font-size: 12px;&quot;&gt;Read Dust Sensor&lt;/font&gt;" style="rounded=0;whiteSpace=wrap;html=1;fillColor=#bac8d3;strokeColor=#23445d;" vertex="1" parent="1">
          <mxGeometry x="190.00000000000003" y="140" width="120" height="25" as="geometry" />
        </mxCell>
        <mxCell id="_DLlkHEPcoLW3twBY6Hj-7" style="edgeStyle=orthogonalEdgeStyle;rounded=0;orthogonalLoop=1;jettySize=auto;html=1;exitX=0.5;exitY=1;exitDx=0;exitDy=0;entryX=0.5;entryY=0;entryDx=0;entryDy=0;" edge="1" parent="1" source="_DLlkHEPcoLW3twBY6Hj-2" target="_DLlkHEPcoLW3twBY6Hj-3">
          <mxGeometry relative="1" as="geometry" />
        </mxCell>
        <mxCell id="_DLlkHEPcoLW3twBY6Hj-2" value="Add to total dust level" style="rounded=0;whiteSpace=wrap;html=1;fillColor=#bac8d3;strokeColor=#23445d;" vertex="1" parent="1">
          <mxGeometry x="190.00000000000003" y="190" width="120" height="25" as="geometry" />
        </mxCell>
        <mxCell id="_DLlkHEPcoLW3twBY6Hj-8" style="edgeStyle=orthogonalEdgeStyle;rounded=0;orthogonalLoop=1;jettySize=auto;html=1;exitX=1;exitY=0.5;exitDx=0;exitDy=0;entryX=0;entryY=0.5;entryDx=0;entryDy=0;" edge="1" parent="1" source="_DLlkHEPcoLW3twBY6Hj-3" target="_DLlkHEPcoLW3twBY6Hj-5">
          <mxGeometry relative="1" as="geometry" />
        </mxCell>
        <mxCell id="_DLlkHEPcoLW3twBY6Hj-10" style="edgeStyle=orthogonalEdgeStyle;rounded=0;orthogonalLoop=1;jettySize=auto;html=1;exitX=0.5;exitY=1;exitDx=0;exitDy=0;entryX=0.5;entryY=0;entryDx=0;entryDy=0;" edge="1" parent="1" source="_DLlkHEPcoLW3twBY6Hj-3" target="_DLlkHEPcoLW3twBY6Hj-9">
          <mxGeometry relative="1" as="geometry" />
        </mxCell>
        <mxCell id="_DLlkHEPcoLW3twBY6Hj-3" value="Is total dust level&lt;br&gt;above acceptable threshold?" style="rhombus;whiteSpace=wrap;html=1;fillColor=#fad9d5;strokeColor=#ae4132;" vertex="1" parent="1">
          <mxGeometry x="180.00000000000003" y="255" width="140" height="140" as="geometry" />
        </mxCell>
        <mxCell id="_DLlkHEPcoLW3twBY6Hj-23" style="edgeStyle=orthogonalEdgeStyle;rounded=0;orthogonalLoop=1;jettySize=auto;html=1;exitX=0.5;exitY=1;exitDx=0;exitDy=0;entryX=1;entryY=0.5;entryDx=0;entryDy=0;" edge="1" parent="1" source="_DLlkHEPcoLW3twBY6Hj-5" target="_DLlkHEPcoLW3twBY6Hj-9">
          <mxGeometry relative="1" as="geometry" />
        </mxCell>
        <mxCell id="_DLlkHEPcoLW3twBY6Hj-66" style="edgeStyle=orthogonalEdgeStyle;rounded=0;orthogonalLoop=1;jettySize=auto;html=1;exitX=0.5;exitY=0;exitDx=0;exitDy=0;entryX=0.5;entryY=1;entryDx=0;entryDy=0;fontFamily=Helvetica;fontSize=12;fontColor=default;" edge="1" parent="1" source="_DLlkHEPcoLW3twBY6Hj-5" target="_DLlkHEPcoLW3twBY6Hj-64">
          <mxGeometry relative="1" as="geometry" />
        </mxCell>
        <mxCell id="_DLlkHEPcoLW3twBY6Hj-5" value="Has it been too long&lt;br&gt;since last vacuuming?" style="rhombus;whiteSpace=wrap;html=1;fillColor=#fad9d5;strokeColor=#ae4132;" vertex="1" parent="1">
          <mxGeometry x="360" y="255" width="140" height="140" as="geometry" />
        </mxCell>
        <mxCell id="_DLlkHEPcoLW3twBY6Hj-16" style="edgeStyle=orthogonalEdgeStyle;rounded=0;orthogonalLoop=1;jettySize=auto;html=1;exitX=0.5;exitY=1;exitDx=0;exitDy=0;entryX=0.5;entryY=0;entryDx=0;entryDy=0;" edge="1" parent="1" source="_DLlkHEPcoLW3twBY6Hj-9" target="_DLlkHEPcoLW3twBY6Hj-15">
          <mxGeometry relative="1" as="geometry" />
        </mxCell>
        <mxCell id="_DLlkHEPcoLW3twBY6Hj-9" value="Show that the vacuum is ready&lt;br&gt;to be used." style="rounded=0;whiteSpace=wrap;html=1;fillColor=#bac8d3;strokeColor=#23445d;" vertex="1" parent="1">
          <mxGeometry x="190.00000000000003" y="425" width="120" height="60" as="geometry" />
        </mxCell>
        <mxCell id="_DLlkHEPcoLW3twBY6Hj-21" style="edgeStyle=orthogonalEdgeStyle;rounded=0;orthogonalLoop=1;jettySize=auto;html=1;exitX=0.5;exitY=1;exitDx=0;exitDy=0;entryX=0.5;entryY=0;entryDx=0;entryDy=0;" edge="1" parent="1" source="_DLlkHEPcoLW3twBY6Hj-15" target="_DLlkHEPcoLW3twBY6Hj-20">
          <mxGeometry relative="1" as="geometry" />
        </mxCell>
        <mxCell id="_DLlkHEPcoLW3twBY6Hj-69" style="edgeStyle=orthogonalEdgeStyle;rounded=0;orthogonalLoop=1;jettySize=auto;html=1;exitX=0;exitY=0.5;exitDx=0;exitDy=0;entryX=0.5;entryY=1;entryDx=0;entryDy=0;fontFamily=Helvetica;fontSize=12;fontColor=default;" edge="1" parent="1" source="_DLlkHEPcoLW3twBY6Hj-15" target="_DLlkHEPcoLW3twBY6Hj-68">
          <mxGeometry relative="1" as="geometry" />
        </mxCell>
        <mxCell id="_DLlkHEPcoLW3twBY6Hj-15" value="Has the vacuum&lt;br&gt;been removed?" style="rhombus;whiteSpace=wrap;html=1;fillColor=#fad9d5;strokeColor=#ae4132;" vertex="1" parent="1">
          <mxGeometry x="190.00000000000003" y="515" width="120" height="120" as="geometry" />
        </mxCell>
        <mxCell id="_DLlkHEPcoLW3twBY6Hj-38" style="edgeStyle=orthogonalEdgeStyle;rounded=0;orthogonalLoop=1;jettySize=auto;html=1;exitX=0.5;exitY=1;exitDx=0;exitDy=0;entryX=0.5;entryY=0;entryDx=0;entryDy=0;" edge="1" parent="1" source="_DLlkHEPcoLW3twBY6Hj-18" target="_DLlkHEPcoLW3twBY6Hj-35">
          <mxGeometry relative="1" as="geometry" />
        </mxCell>
        <mxCell id="_DLlkHEPcoLW3twBY6Hj-72" style="edgeStyle=orthogonalEdgeStyle;rounded=0;orthogonalLoop=1;jettySize=auto;html=1;exitX=0;exitY=0.5;exitDx=0;exitDy=0;entryX=0.5;entryY=1;entryDx=0;entryDy=0;fontFamily=Helvetica;fontSize=12;fontColor=default;" edge="1" parent="1" source="_DLlkHEPcoLW3twBY6Hj-18" target="_DLlkHEPcoLW3twBY6Hj-71">
          <mxGeometry relative="1" as="geometry" />
        </mxCell>
        <mxCell id="_DLlkHEPcoLW3twBY6Hj-18" value="Has the vacuum&lt;br&gt;been returned?" style="rhombus;whiteSpace=wrap;html=1;fillColor=#fad9d5;strokeColor=#ae4132;" vertex="1" parent="1">
          <mxGeometry x="190.00000000000003" y="755" width="120" height="120" as="geometry" />
        </mxCell>
        <mxCell id="_DLlkHEPcoLW3twBY6Hj-22" style="edgeStyle=orthogonalEdgeStyle;rounded=0;orthogonalLoop=1;jettySize=auto;html=1;exitX=0.5;exitY=1;exitDx=0;exitDy=0;entryX=0.5;entryY=0;entryDx=0;entryDy=0;" edge="1" parent="1" source="_DLlkHEPcoLW3twBY6Hj-20" target="_DLlkHEPcoLW3twBY6Hj-18">
          <mxGeometry relative="1" as="geometry" />
        </mxCell>
        <mxCell id="_DLlkHEPcoLW3twBY6Hj-20" value="Set display to &quot;currently vacuuming&quot;" style="rounded=0;whiteSpace=wrap;html=1;fillColor=#bac8d3;strokeColor=#23445d;" vertex="1" parent="1">
          <mxGeometry x="190.00000000000003" y="665" width="120" height="45" as="geometry" />
        </mxCell>
        <mxCell id="_DLlkHEPcoLW3twBY6Hj-25" value="&lt;b&gt;&lt;font style=&quot;font-size: 14px;&quot;&gt;Yes&lt;/font&gt;&lt;/b&gt;" style="text;html=1;strokeColor=none;fillColor=none;align=center;verticalAlign=middle;whiteSpace=wrap;rounded=0;" vertex="1" parent="1">
          <mxGeometry x="200.00000000000003" y="395" width="60" height="30" as="geometry" />
        </mxCell>
        <mxCell id="_DLlkHEPcoLW3twBY6Hj-26" value="&lt;b&gt;&lt;font style=&quot;font-size: 14px;&quot;&gt;No&lt;/font&gt;&lt;/b&gt;" style="text;html=1;strokeColor=none;fillColor=none;align=center;verticalAlign=middle;whiteSpace=wrap;rounded=0;" vertex="1" parent="1">
          <mxGeometry x="310" y="295" width="60" height="30" as="geometry" />
        </mxCell>
        <mxCell id="_DLlkHEPcoLW3twBY6Hj-27" value="&lt;b&gt;&lt;font style=&quot;font-size: 14px;&quot;&gt;Yes&lt;/font&gt;&lt;/b&gt;" style="text;html=1;strokeColor=none;fillColor=none;align=center;verticalAlign=middle;whiteSpace=wrap;rounded=0;" vertex="1" parent="1">
          <mxGeometry x="380" y="395" width="60" height="30" as="geometry" />
        </mxCell>
        <mxCell id="_DLlkHEPcoLW3twBY6Hj-28" value="&lt;b&gt;&lt;font style=&quot;font-size: 14px;&quot;&gt;Yes&lt;/font&gt;&lt;/b&gt;" style="text;html=1;strokeColor=none;fillColor=none;align=center;verticalAlign=middle;whiteSpace=wrap;rounded=0;" vertex="1" parent="1">
          <mxGeometry x="190.00000000000003" y="625" width="60" height="30" as="geometry" />
        </mxCell>
        <mxCell id="_DLlkHEPcoLW3twBY6Hj-29" value="&lt;b&gt;&lt;font style=&quot;font-size: 14px;&quot;&gt;Yes&lt;/font&gt;&lt;/b&gt;" style="text;html=1;strokeColor=none;fillColor=none;align=center;verticalAlign=middle;whiteSpace=wrap;rounded=0;" vertex="1" parent="1">
          <mxGeometry x="370" y="630" width="60" height="30" as="geometry" />
        </mxCell>
        <mxCell id="_DLlkHEPcoLW3twBY6Hj-30" value="&lt;b&gt;&lt;font style=&quot;font-size: 14px;&quot;&gt;No&lt;/font&gt;&lt;/b&gt;" style="text;html=1;strokeColor=none;fillColor=none;align=center;verticalAlign=middle;whiteSpace=wrap;rounded=0;" vertex="1" parent="1">
          <mxGeometry x="380" y="225" width="60" height="30" as="geometry" />
        </mxCell>
        <mxCell id="_DLlkHEPcoLW3twBY6Hj-31" value="&lt;b&gt;&lt;font style=&quot;font-size: 14px;&quot;&gt;No&lt;/font&gt;&lt;/b&gt;" style="text;html=1;strokeColor=none;fillColor=none;align=center;verticalAlign=middle;whiteSpace=wrap;rounded=0;" vertex="1" parent="1">
          <mxGeometry x="140.00000000000003" y="550" width="60" height="30" as="geometry" />
        </mxCell>
        <mxCell id="_DLlkHEPcoLW3twBY6Hj-32" value="&lt;b&gt;&lt;font style=&quot;font-size: 14px;&quot;&gt;No&lt;/font&gt;&lt;/b&gt;" style="text;html=1;strokeColor=none;fillColor=none;align=center;verticalAlign=middle;whiteSpace=wrap;rounded=0;" vertex="1" parent="1">
          <mxGeometry x="140.00000000000003" y="785" width="60" height="30" as="geometry" />
        </mxCell>
        <mxCell id="_DLlkHEPcoLW3twBY6Hj-55" style="edgeStyle=orthogonalEdgeStyle;rounded=0;orthogonalLoop=1;jettySize=auto;html=1;exitX=0.5;exitY=1;exitDx=0;exitDy=0;entryX=0.5;entryY=0;entryDx=0;entryDy=0;fontFamily=Helvetica;fontSize=12;fontColor=default;" edge="1" parent="1" source="_DLlkHEPcoLW3twBY6Hj-35" target="_DLlkHEPcoLW3twBY6Hj-43">
          <mxGeometry relative="1" as="geometry" />
        </mxCell>
        <mxCell id="_DLlkHEPcoLW3twBY6Hj-57" style="edgeStyle=orthogonalEdgeStyle;rounded=0;orthogonalLoop=1;jettySize=auto;html=1;exitX=1;exitY=0.5;exitDx=0;exitDy=0;entryX=0.5;entryY=1;entryDx=0;entryDy=0;fontFamily=Helvetica;fontSize=12;fontColor=default;" edge="1" parent="1" source="_DLlkHEPcoLW3twBY6Hj-35" target="_DLlkHEPcoLW3twBY6Hj-39">
          <mxGeometry relative="1" as="geometry" />
        </mxCell>
        <mxCell id="_DLlkHEPcoLW3twBY6Hj-35" value="Has the vacuum &lt;br&gt;been in use for&lt;br&gt;long enough?" style="rhombus;whiteSpace=wrap;html=1;fillColor=#fad9d5;strokeColor=#ae4132;" vertex="1" parent="1">
          <mxGeometry x="360" y="505" width="140" height="140" as="geometry" />
        </mxCell>
        <mxCell id="_DLlkHEPcoLW3twBY6Hj-59" style="edgeStyle=orthogonalEdgeStyle;rounded=0;orthogonalLoop=1;jettySize=auto;html=1;exitX=0;exitY=0.5;exitDx=0;exitDy=0;entryX=1;entryY=0.5;entryDx=0;entryDy=0;fontFamily=Helvetica;fontSize=12;fontColor=default;" edge="1" parent="1" source="_DLlkHEPcoLW3twBY6Hj-39" target="_DLlkHEPcoLW3twBY6Hj-9">
          <mxGeometry relative="1" as="geometry" />
        </mxCell>
        <mxCell id="_DLlkHEPcoLW3twBY6Hj-39" value="Display warning, tell user to vacuum more" style="rounded=0;whiteSpace=wrap;html=1;fillColor=#bac8d3;strokeColor=#23445d;" vertex="1" parent="1">
          <mxGeometry x="460" y="425" width="120" height="60" as="geometry" />
        </mxCell>
        <mxCell id="_DLlkHEPcoLW3twBY6Hj-42" value="Start tracking total time vacuumed" style="ellipse;shape=cloud;whiteSpace=wrap;html=1;fillColor=#e51400;strokeColor=#B20000;fontColor=#ffffff;" vertex="1" parent="1">
          <mxGeometry x="570" y="690" width="120" height="80" as="geometry" />
        </mxCell>
        <mxCell id="_DLlkHEPcoLW3twBY6Hj-48" style="edgeStyle=orthogonalEdgeStyle;rounded=0;orthogonalLoop=1;jettySize=auto;html=1;exitX=0.5;exitY=1;exitDx=0;exitDy=0;entryX=0.5;entryY=0;entryDx=0;entryDy=0;" edge="1" parent="1" source="_DLlkHEPcoLW3twBY6Hj-43" target="_DLlkHEPcoLW3twBY6Hj-45">
          <mxGeometry relative="1" as="geometry" />
        </mxCell>
        <mxCell id="_DLlkHEPcoLW3twBY6Hj-43" value="Reset dust level to zero" style="rounded=0;whiteSpace=wrap;html=1;fillColor=#bac8d3;strokeColor=#23445d;" vertex="1" parent="1">
          <mxGeometry x="360" y="675" width="140" height="25" as="geometry" />
        </mxCell>
        <mxCell id="_DLlkHEPcoLW3twBY6Hj-49" style="edgeStyle=orthogonalEdgeStyle;rounded=0;orthogonalLoop=1;jettySize=auto;html=1;exitX=0.5;exitY=1;exitDx=0;exitDy=0;entryX=0.5;entryY=0;entryDx=0;entryDy=0;" edge="1" parent="1" source="_DLlkHEPcoLW3twBY6Hj-45" target="_DLlkHEPcoLW3twBY6Hj-46">
          <mxGeometry relative="1" as="geometry" />
        </mxCell>
        <mxCell id="_DLlkHEPcoLW3twBY6Hj-45" value="Dispense reward" style="whiteSpace=wrap;html=1;fillColor=#bac8d3;strokeColor=#23445d;" vertex="1" parent="1">
          <mxGeometry x="370" y="730" width="120" height="25" as="geometry" />
        </mxCell>
        <mxCell id="_DLlkHEPcoLW3twBY6Hj-75" style="edgeStyle=orthogonalEdgeStyle;rounded=0;orthogonalLoop=1;jettySize=auto;html=1;exitX=0.5;exitY=1;exitDx=0;exitDy=0;entryX=0.5;entryY=0;entryDx=0;entryDy=0;fontFamily=Helvetica;fontSize=12;fontColor=default;" edge="1" parent="1" source="_DLlkHEPcoLW3twBY6Hj-46" target="_DLlkHEPcoLW3twBY6Hj-74">
          <mxGeometry relative="1" as="geometry" />
        </mxCell>
        <mxCell id="_DLlkHEPcoLW3twBY6Hj-46" value="Reset the time since&lt;br&gt;last vacuumed" style="whiteSpace=wrap;html=1;fillColor=#bac8d3;strokeColor=#23445d;" vertex="1" parent="1">
          <mxGeometry x="370" y="785" width="120" height="45" as="geometry" />
        </mxCell>
        <mxCell id="_DLlkHEPcoLW3twBY6Hj-51" style="edgeStyle=orthogonalEdgeStyle;rounded=0;orthogonalLoop=1;jettySize=auto;html=1;exitX=0.5;exitY=1;exitDx=0;exitDy=0;entryX=0.5;entryY=0;entryDx=0;entryDy=0;" edge="1" parent="1" source="_DLlkHEPcoLW3twBY6Hj-52" target="_DLlkHEPcoLW3twBY6Hj-1">
          <mxGeometry relative="1" as="geometry">
            <mxPoint x="250.00000000000003" y="5" as="sourcePoint" />
          </mxGeometry>
        </mxCell>
        <mxCell id="_DLlkHEPcoLW3twBY6Hj-52" value="Startup Photon 2" style="rounded=1;whiteSpace=wrap;html=1;arcSize=50;fillColor=#b1ddf0;strokeColor=#10739e;" vertex="1" parent="1">
          <mxGeometry x="190.00000000000003" y="40" width="120" height="60" as="geometry" />
        </mxCell>
        <mxCell id="_DLlkHEPcoLW3twBY6Hj-67" style="edgeStyle=orthogonalEdgeStyle;rounded=0;orthogonalLoop=1;jettySize=auto;html=1;exitX=0.5;exitY=0;exitDx=0;exitDy=0;entryX=1;entryY=0.5;entryDx=0;entryDy=0;fontFamily=Helvetica;fontSize=12;fontColor=default;" edge="1" parent="1" source="_DLlkHEPcoLW3twBY6Hj-64" target="_DLlkHEPcoLW3twBY6Hj-1">
          <mxGeometry relative="1" as="geometry" />
        </mxCell>
        <mxCell id="_DLlkHEPcoLW3twBY6Hj-64" value="Adafruit Update" style="shape=process;whiteSpace=wrap;html=1;backgroundOutline=1;rounded=0;strokeColor=#0e8088;align=center;verticalAlign=middle;fontFamily=Helvetica;fontSize=12;fillColor=#b0e3e6;" vertex="1" parent="1">
          <mxGeometry x="370" y="190" width="120" height="30" as="geometry" />
        </mxCell>
        <mxCell id="_DLlkHEPcoLW3twBY6Hj-77" style="edgeStyle=orthogonalEdgeStyle;rounded=0;orthogonalLoop=1;jettySize=auto;html=1;exitX=0.5;exitY=1;exitDx=0;exitDy=0;entryX=0.5;entryY=0;entryDx=0;entryDy=0;fontFamily=Helvetica;fontSize=12;fontColor=default;" edge="1" parent="1" source="_DLlkHEPcoLW3twBY6Hj-65" target="_DLlkHEPcoLW3twBY6Hj-76">
          <mxGeometry relative="1" as="geometry" />
        </mxCell>
        <mxCell id="_DLlkHEPcoLW3twBY6Hj-65" value="Adafruit Update" style="rounded=1;whiteSpace=wrap;html=1;arcSize=50;fillColor=#b1ddf0;strokeColor=#10739e;" vertex="1" parent="1">
          <mxGeometry x="640" y="40" width="120" height="30" as="geometry" />
        </mxCell>
        <mxCell id="_DLlkHEPcoLW3twBY6Hj-70" style="edgeStyle=orthogonalEdgeStyle;rounded=0;orthogonalLoop=1;jettySize=auto;html=1;exitX=0.5;exitY=0;exitDx=0;exitDy=0;entryX=0;entryY=0.5;entryDx=0;entryDy=0;fontFamily=Helvetica;fontSize=12;fontColor=default;" edge="1" parent="1" source="_DLlkHEPcoLW3twBY6Hj-68" target="_DLlkHEPcoLW3twBY6Hj-9">
          <mxGeometry relative="1" as="geometry" />
        </mxCell>
        <mxCell id="_DLlkHEPcoLW3twBY6Hj-68" value="Adafruit Update" style="shape=process;whiteSpace=wrap;html=1;backgroundOutline=1;rounded=0;strokeColor=#0e8088;align=center;verticalAlign=middle;fontFamily=Helvetica;fontSize=12;fillColor=#b0e3e6;" vertex="1" parent="1">
          <mxGeometry x="60" y="505" width="120" height="30" as="geometry" />
        </mxCell>
        <mxCell id="_DLlkHEPcoLW3twBY6Hj-73" style="edgeStyle=orthogonalEdgeStyle;rounded=0;orthogonalLoop=1;jettySize=auto;html=1;exitX=0.5;exitY=0;exitDx=0;exitDy=0;entryX=0;entryY=0.5;entryDx=0;entryDy=0;fontFamily=Helvetica;fontSize=12;fontColor=default;" edge="1" parent="1" source="_DLlkHEPcoLW3twBY6Hj-71" target="_DLlkHEPcoLW3twBY6Hj-20">
          <mxGeometry relative="1" as="geometry" />
        </mxCell>
        <mxCell id="_DLlkHEPcoLW3twBY6Hj-71" value="Adafruit Update" style="shape=process;whiteSpace=wrap;html=1;backgroundOutline=1;rounded=0;strokeColor=#0e8088;align=center;verticalAlign=middle;fontFamily=Helvetica;fontSize=12;fillColor=#b0e3e6;" vertex="1" parent="1">
          <mxGeometry x="60" y="740" width="120" height="30" as="geometry" />
        </mxCell>
        <mxCell id="_DLlkHEPcoLW3twBY6Hj-89" style="edgeStyle=orthogonalEdgeStyle;rounded=0;orthogonalLoop=1;jettySize=auto;html=1;exitX=0.5;exitY=1;exitDx=0;exitDy=0;entryX=0;entryY=0.5;entryDx=0;entryDy=0;fontFamily=Helvetica;fontSize=12;fontColor=default;" edge="1" parent="1" source="_DLlkHEPcoLW3twBY6Hj-74" target="_DLlkHEPcoLW3twBY6Hj-1">
          <mxGeometry relative="1" as="geometry">
            <Array as="points">
              <mxPoint x="430" y="930" />
              <mxPoint x="40" y="930" />
              <mxPoint x="40" y="153" />
            </Array>
          </mxGeometry>
        </mxCell>
        <mxCell id="_DLlkHEPcoLW3twBY6Hj-74" value="Adafruit Update" style="shape=process;whiteSpace=wrap;html=1;backgroundOutline=1;rounded=0;strokeColor=#0e8088;align=center;verticalAlign=middle;fontFamily=Helvetica;fontSize=12;fillColor=#b0e3e6;" vertex="1" parent="1">
          <mxGeometry x="370" y="860" width="120" height="30" as="geometry" />
        </mxCell>
        <mxCell id="_DLlkHEPcoLW3twBY6Hj-79" style="edgeStyle=orthogonalEdgeStyle;rounded=0;orthogonalLoop=1;jettySize=auto;html=1;exitX=0.5;exitY=1;exitDx=0;exitDy=0;entryX=0.5;entryY=0;entryDx=0;entryDy=0;fontFamily=Helvetica;fontSize=12;fontColor=default;" edge="1" parent="1" source="_DLlkHEPcoLW3twBY6Hj-76" target="_DLlkHEPcoLW3twBY6Hj-78">
          <mxGeometry relative="1" as="geometry" />
        </mxCell>
        <mxCell id="_DLlkHEPcoLW3twBY6Hj-82" style="edgeStyle=orthogonalEdgeStyle;rounded=0;orthogonalLoop=1;jettySize=auto;html=1;exitX=1;exitY=0.5;exitDx=0;exitDy=0;entryX=1;entryY=0.5;entryDx=0;entryDy=0;fontFamily=Helvetica;fontSize=12;fontColor=default;" edge="1" parent="1" source="_DLlkHEPcoLW3twBY6Hj-76" target="_DLlkHEPcoLW3twBY6Hj-80">
          <mxGeometry relative="1" as="geometry">
            <Array as="points">
              <mxPoint x="800" y="148" />
              <mxPoint x="800" y="390" />
              <mxPoint x="760" y="390" />
            </Array>
          </mxGeometry>
        </mxCell>
        <mxCell id="_DLlkHEPcoLW3twBY6Hj-76" value="Has it been&lt;br&gt;longer than 1 minute?" style="rhombus;whiteSpace=wrap;html=1;rounded=0;strokeColor=#ae4132;align=center;verticalAlign=middle;fontFamily=Helvetica;fontSize=12;fillColor=#fad9d5;" vertex="1" parent="1">
          <mxGeometry x="647.5" y="95" width="105" height="105" as="geometry" />
        </mxCell>
        <mxCell id="_DLlkHEPcoLW3twBY6Hj-87" style="edgeStyle=orthogonalEdgeStyle;rounded=0;orthogonalLoop=1;jettySize=auto;html=1;exitX=0.5;exitY=1;exitDx=0;exitDy=0;entryX=0.5;entryY=0;entryDx=0;entryDy=0;fontFamily=Helvetica;fontSize=12;fontColor=default;" edge="1" parent="1" source="_DLlkHEPcoLW3twBY6Hj-78" target="_DLlkHEPcoLW3twBY6Hj-86">
          <mxGeometry relative="1" as="geometry" />
        </mxCell>
        <mxCell id="_DLlkHEPcoLW3twBY6Hj-78" value="Send data to Adafruit:&lt;br&gt;-Total dust&lt;br&gt;-Vacuum State&lt;br&gt;-Current &quot;score&quot; of users" style="rounded=0;whiteSpace=wrap;html=1;fillColor=#bac8d3;strokeColor=#23445d;" vertex="1" parent="1">
          <mxGeometry x="620" y="230" width="160" height="70" as="geometry" />
        </mxCell>
        <mxCell id="_DLlkHEPcoLW3twBY6Hj-80" value="Return to code" style="rounded=1;whiteSpace=wrap;html=1;arcSize=50;fillColor=#b1ddf0;strokeColor=#10739e;" vertex="1" parent="1">
          <mxGeometry x="640" y="380" width="120" height="30" as="geometry" />
        </mxCell>
        <mxCell id="_DLlkHEPcoLW3twBY6Hj-83" value="&lt;b&gt;&lt;font style=&quot;font-size: 14px;&quot;&gt;No&lt;/font&gt;&lt;/b&gt;" style="text;html=1;strokeColor=none;fillColor=none;align=center;verticalAlign=middle;whiteSpace=wrap;rounded=0;" vertex="1" parent="1">
          <mxGeometry x="740" y="120" width="60" height="30" as="geometry" />
        </mxCell>
        <mxCell id="_DLlkHEPcoLW3twBY6Hj-84" value="&lt;b&gt;&lt;font style=&quot;font-size: 14px;&quot;&gt;Yes&lt;/font&gt;&lt;/b&gt;" style="text;html=1;strokeColor=none;fillColor=none;align=center;verticalAlign=middle;whiteSpace=wrap;rounded=0;" vertex="1" parent="1">
          <mxGeometry x="647.5" y="195" width="60" height="30" as="geometry" />
        </mxCell>
        <mxCell id="_DLlkHEPcoLW3twBY6Hj-88" style="edgeStyle=orthogonalEdgeStyle;rounded=0;orthogonalLoop=1;jettySize=auto;html=1;exitX=0.5;exitY=1;exitDx=0;exitDy=0;entryX=0.5;entryY=0;entryDx=0;entryDy=0;fontFamily=Helvetica;fontSize=12;fontColor=default;" edge="1" parent="1" source="_DLlkHEPcoLW3twBY6Hj-86" target="_DLlkHEPcoLW3twBY6Hj-80">
          <mxGeometry relative="1" as="geometry" />
        </mxCell>
        <mxCell id="_DLlkHEPcoLW3twBY6Hj-86" value="&lt;font style=&quot;font-size: 12px;&quot;&gt;Reset timer&lt;/font&gt;" style="rounded=0;whiteSpace=wrap;html=1;fillColor=#bac8d3;strokeColor=#23445d;" vertex="1" parent="1">
          <mxGeometry x="640" y="330" width="120" height="25" as="geometry" />
        </mxCell>
      </root>
    </mxGraphModel>
  </diagram>
</mxfile>
